<?xml version="1.0" encoding="utf-8"?>
<!-- Generator: Adobe Illustrator 24.2.0, SVG Export Plug-In . SVG Version: 6.00 Build 0)  -->
<svg version="1.1" id="Ebene_1" xmlns="http://www.w3.org/2000/svg" xmlns:xlink="http://www.w3.org/1999/xlink" x="0px" y="0px"
	 viewBox="0 0 325.03 300" style="enable-background:new 0 0 325.03 300;" xml:space="preserve">
<style type="text/css">
	.st0{fill:#3B5DA7;}
	.st1{fill:#FFFFFF;}
</style>
<g>
	<g>
		<path class="st0" d="M-381.55,51.75c-63.98-7.97-129.46-7.15-193.73-0.46c-5.22,0.55-10.56,1.16-15.15,3.01
			c-10.48,4.22-14.26,13.49-17,21.85c-14.58,44.42-26.33,89.32-35.22,134.49c-1.34,6.77-2.33,14.35,3.46,19.81
			c6.24,5.88,17.83,6.96,28.15,7.52c79.11,4.27,149.2,8.2,228.42,5.07c8.33-0.33,17.14-0.82,23.95-4.26
			c5.08-2.56,8.48-6.48,11.04-10.53c6.08-9.6,8.14-20.24,9.2-30.74c4.58-45.55-8.57-90.07-31.83-133.97
			c-2.07-3.89-4.16-9.73-9.84-11.38"/>
	</g>
	<path class="st1" d="M-444.57,131.36c-4.6-6.54-36.16-35.84-42.06-41.54c-4.91-4.74-10.89-8.22-15.59-4.26
		c-5.03,4.24,0.13,8.51,5.05,13.25c0,0,31.38,29.21,33.07,30.34c1.75,1.16,7.71,7.81,8.16,8.45c3.92,5.48-2.09,13.2-4.22,16.05
		c-5.01,6.69-11.51,14.29-17.17,20.55c-4.5,4.97-15.78,15.87-20.26,20.83c-0.76-7.69-1.07-23.36-1.29-31.13
		c-0.29-9.81,0.87-19.56,0.58-29.36c-0.18-6.22,1.27-11.58-4.17-11.75c-6.2-0.19-7.45,5.49-7.28,11.76
		c0.32,11.25-0.8,23.07-0.48,34.33c0.31,10.81,0.92,24.03,3.85,34.27c0.03,0.11,0.08,0.17,0.11,0.29c0.02,0.09,0.08,0.18,0.11,0.27
		c0.16,0.43,0.33,0.83,0.53,1.12c0.41,0.67,0.95,1.37,1.77,2.1c4.61,4.13,10.79,2.36,14.99-2.28c7.55-8.35,14.94-17.26,22.49-25.61
		c7.26-8.03,15.96-17.99,20.94-27.4C-440.67,142.61-438.01,140.71-444.57,131.36z"/>
</g>
<g>
	<g>
		<path class="st0" d="M91.22,241.99c11.66,3.7,93.08,5.38,143.21-1.32c4.08-0.55,8.24-1.16,11.82-3.04
			c8.17-4.25,11.12-13.55,13.25-21.94c11.37-44.6,20.54-89.67,27.47-135.03c1.04-6.8,1.82-14.41-2.69-19.89
			c-4.87-5.9-13.92-6.99-21.96-7.55c-61.69-4.28-116.37-8.23-178.15-5.08c-6.5,0.33-13.37,0.83-18.68,4.27
			c-3.96,2.57-6.62,6.51-8.62,10.57c-4.75,9.64-6.36,20.32-7.18,30.87C46.1,139.58,70.62,221.29,74.5,228.35
			C78.38,235.42,79.95,238.41,91.22,241.99z"/>
	</g>
	<g>
		<g>
			<path class="st1" d="M168.27,157.81c3.27-2.13,8.75-0.19,11.62,1.79c2.87,1.97,3.79,4.95,5.53,8.02
				c3.7,6.51,5.63,14.48,3.33,21.68c-1.6,5-5.04,9.98-8.96,13.06c-7.81,6.14-17.67,8.22-26.67,3.78c-2.96-1.47-7.43-4.48-9.79-6.75
				c-3.95-3.79-8.8-7.56-10-13.12c-1.67-7.67-11.25-5-9.21,2.12c2.6,9.09,7.49,16.93,14.62,22.39c5.67,4.35,13.23,6.43,20.21,7.24
				c5.53,0.64,11.03,0.75,16.6-1.48c4.05-1.62,8.54-4.72,11.84-7.48c5.12-4.3,8.4-9.01,10.8-15.59c1.76-4.83,2.25-9.82,1.8-14.98
				c-0.49-5.67-2.12-11.49-4.8-16.36c-3.22-5.82-6.77-12.05-13.33-15.07c-5.49-2.53-13.76-2.73-19.2,0.8
				C156.63,151.8,162.2,161.76,168.27,157.81L168.27,157.81z"/>
		</g>
		<g>
			<path class="st1" d="M139.56,88.53c1.86,6.24,6.73,16.02,7.47,17.56c7.19,14.9,7.51,19.44,12.35,26.57
				c0.78,1.15,5.54,4.8,8.18,3.19c0.78-0.47,1.37-1.07,1.8-1.75c1.24-1.97,0.69-4.43,0.19-6.12c-1.65-5.62-5.77-11.11-6.73-12.98
				c-3.75-7.29-5.53-11.61-9.17-21.49c-0.77-2.09-2.18-8.43-4.49-10.78c-1.77-1.8-5.99-3.93-9.4-0.32
				C138.13,84.13,139.09,86.98,139.56,88.53z"/>
		</g>
		<g>
			<path class="st1" d="M184.65,68.77c-2.23,2.6-2.83,13.28-2.78,17.06s0.45,10.23,0.42,15.55c-0.03,4.53-0.96,15.54-1.77,28.41
				c-0.05,0.82,0.59,9.26,1.39,10.44c2.66,3.93,10.41,2.74,10.74-3.52c0.26-4.76-0.27-10.58,0.83-15.88
				c1.1-5.3-0.77-17.76,1.32-31.94c0.2-0.88,0.63-7.29,1.48-20.11c0.06-0.87,0.15-2.59-0.88-3.52
				C193.36,63.38,187.71,65.21,184.65,68.77z"/>
		</g>
		<g>
			<path class="st1" d="M135.67,151.04c1.29,1.44,4.67,4.09,5.96,5.53c1.89,2.11,3.13,3.86,4.44,5.63c1.03,1.39,2.06,2.35,3.52,4
				c0.74,0.83,1.97,0.84,3.05,1.05c1.8,0.34,3.22,0.5,4.46-0.89c2.09-2.36,1.95-5.25-0.15-7.61c-1.56-1.75-2.57-3.7-4.12-5.45
				c-0.89-1.01-1.8-2-2.69-3.01c-2.21-2.46-5.03-3.75-6.86-6.52c-2.03-3.08-5.29-2.55-7.26-0.32
				C133.9,145.81,133.55,148.68,135.67,151.04L135.67,151.04z"/>
		</g>
		<g>
			<path class="st1" d="M122.64,164.74c1.94,1.46,3.45,3.41,5.38,4.86c3.41,2.57,5.99,4.39,9.38,6.96c1.1,0.83,2.89,1.09,4.14,0.73
				c1.29-0.37,3.04-0.54,3.68-1.79c0.68-1.34,0.54-2.66,0.08-4.14c-0.47-1.51-1.81-2.31-3.05-3.24c-3.23-2.44-4.89-5.66-8.13-8.09
				c-2.11-1.58-4.38-2.55-6.49-4.14c-1.1-0.83-2.81-0.84-4.06-0.49c-1.29,0.37-2.72,0.7-3.36,1.94c-0.68,1.34-0.55,2.57-0.08,4.05
				C120.6,162.93,122.64,164.74,122.64,164.74z"/>
		</g>
	</g>
</g>
<g>
	<g>
		<path class="st0" d="M-1163.82,236.33c11.66,3.7,93.08,5.38,143.21-1.32c4.08-0.55,8.24-1.16,11.82-3.04
			c8.17-4.25,11.12-13.55,13.25-21.94c11.37-44.6,20.54-89.67,27.47-135.03c1.04-6.8,1.82-14.41-2.69-19.89
			c-4.87-5.9-13.92-6.99-21.96-7.55c-61.69-4.28-116.37-8.23-178.15-5.08c-6.5,0.33-13.37,0.83-18.68,4.27
			c-3.96,2.57-6.62,6.51-8.62,10.57c-4.75,9.64-6.36,20.32-7.18,30.87c-3.57,45.73,20.95,127.44,24.83,134.51
			C-1176.65,229.77-1175.09,232.76-1163.82,236.33z"/>
	</g>
	<g>
		<path class="st1" d="M-1129.78,122.26c5.37-2.21,10.31-4.3,16.23-4.62c5.58-0.3,11.85,1.2,17.19,2.79
			c11.27,3.36,20.83,9.7,28.7,18.15c7.73,8.3,10.88,19.34,10.79,30.46c-0.09,10.57-4.64,19.78-11.63,27.71
			c-12.75,14.43-28.13,17.38-47.38,10.57c-6.99-2.47-14.3-7.2-18.4-13.12c-4.79-6.92-5.21-15.48-4.66-23.47
			c0.78-11.18,4.62-17.25,13.96-24.74c8.31-6.67,17.28-11.1,28.03-12.84c3.38-0.55-11.78-6.93-13-6.82c-11.58,1-12.9,3.6-21.53,9.03
			c-10.42,6.55-16.37,17.96-18.77,29.47c-2.21,10.62-2.2,22.28,2.39,32.51c3.72,8.3,10.4,14.91,18.79,19.26
			c20.21,10.48,47.57,6.78,64.19-7.25c9.97-8.41,17.07-19.66,20.18-31.93c3.23-12.72-0.89-25.81-8.21-36.83
			c-8.32-12.51-20.17-23.72-34.81-28.85c-7.28-2.55-15.94-3.56-23.69-3.6c-7.59-0.02-15.1,3.27-21.95,6.08
			C-1138.78,116.44-1135.22,124.51-1129.78,122.26L-1129.78,122.26z"/>
	</g>
	<g>
		<path class="st1" d="M-1050.49,122.99c1.75-0.07,4.85,1.21,5.23,1.4c0.14,0.07,3.65,2.63,5.25,3.81c1.78,1.32,4.57,2.07,6.02,1.02
			c1.54-1.13,1.23-6.87-1.94-10.16c-2.99-3.11-7.16-5.66-11.94-7.32c-5.75-2-13.38-2.13-19.92-0.91c-1.31,0.55,4.22,3.8,6.54,6.39
			c2.79,3.11,4.02,3.73,5.1,4.98C-1055.06,123.44-1051.55,123.03-1050.49,122.99z"/>
	</g>
	<path class="st1" d="M-999.16,72.3c0,0-38.93-11.63-50.92,5.77c-11.99,17.39,32.05,14.56,32.05,14.56s19.17,0.42,24.99-9.77
		C-988.2,74.37-999.16,72.3-999.16,72.3z"/>
</g>
</svg>
