<svg xmlns="http://www.w3.org/2000/svg" xmlns:xlink="http://www.w3.org/1999/xlink" width="26" height="26" viewBox="0 0 26 26">
  <defs>
    <style>
      .cls-1 {
        fill: #fffdfa;
      }

      .cls-2 {
        clip-path: url(#clip-path);
      }
    </style>
    <clipPath id="clip-path">
      <rect id="Rectangle_9" data-name="Rectangle 9" class="cls-1" width="26" height="26" transform="translate(0 -0.253)"/>
    </clipPath>
  </defs>
  <g id="facebook" transform="translate(0 0.516)">
    <g id="Group_83" data-name="Group 83" class="cls-2" transform="translate(0 -0.263)">
      <path id="Path_161" data-name="Path 161" class="cls-1" d="M12.813,0A12.813,12.813,0,1,0,25.626,12.813,12.813,12.813,0,0,0,12.813,0m3.22,12.825H13.924V20.34H10.8v-7.5H9.319V10.17h1.465c0-.279-.007-.531,0-.782a12.144,12.144,0,0,1,.077-1.643,2.693,2.693,0,0,1,2.686-2.431c.891-.058,1.788-.011,2.706-.011V7.877h-.632c-.347,0-.694-.008-1.04,0a.6.6,0,0,0-.655.626c-.017.54,0,1.081,0,1.655h2.384l-.274,2.664" transform="translate(0 0.121)"/>
      <path id="Path_162" data-name="Path 162" class="cls-1" d="M12.813,0A12.813,12.813,0,1,0,25.626,12.813,12.813,12.813,0,0,0,12.813,0m3.22,12.825H13.924V20.34H10.8v-7.5H9.319V10.17h1.465c0-.279-.007-.531,0-.782a12.144,12.144,0,0,1,.077-1.643,2.693,2.693,0,0,1,2.686-2.431c.891-.058,1.788-.011,2.706-.011V7.877h-.632c-.347,0-.694-.008-1.04,0a.6.6,0,0,0-.655.626c-.017.54,0,1.081,0,1.655h2.384l-.274,2.664" transform="translate(0 0.121)"/>
    </g>
  </g>
</svg>
