<?xml version="1.0" encoding="utf-8"?>
<!-- Generator: Adobe Illustrator 24.2.0, SVG Export Plug-In . SVG Version: 6.00 Build 0)  -->
<svg version="1.1" id="Ebene_1" xmlns="http://www.w3.org/2000/svg" xmlns:xlink="http://www.w3.org/1999/xlink" x="0px" y="0px"
	 viewBox="0 0 325.03 300" style="enable-background:new 0 0 325.03 300;" xml:space="preserve">
<style type="text/css">
	.st0{fill:#3B5DA7;}
	.st1{fill:#FFFFFF;}
</style>
<g>
	<g>
		<path class="st0" d="M-963.32,246.47c10.21,3.24,81.53,4.71,125.44-1.16c3.57-0.48,7.22-1.02,10.35-2.66
			c7.16-3.72,9.74-11.87,11.61-19.22c9.96-39.07,17.99-78.55,24.06-118.28c0.91-5.96,1.59-12.62-2.36-17.42
			c-4.27-5.17-12.19-6.12-19.24-6.61c-54.04-3.75-101.93-7.21-156.05-4.45c-5.69,0.29-11.71,0.73-16.36,3.74
			c-3.47,2.25-5.8,5.7-7.55,9.26c-4.16,8.44-5.57,17.8-6.29,27.04c-3.13,40.06,18.35,111.63,21.75,117.82
			C-974.56,240.72-973.19,243.34-963.32,246.47z"/>
	</g>
	<g>
		<path class="st1" d="M-933.5,146.55c4.7-1.94,9.03-3.77,14.22-4.05c4.89-0.26,10.38,1.05,15.06,2.44
			c9.87,2.94,18.25,8.5,25.14,15.9c6.77,7.27,9.53,16.94,9.45,26.68c-0.08,9.26-4.06,17.33-10.19,24.27
			c-11.17,12.64-24.64,15.22-41.5,9.26c-6.12-2.16-12.53-6.31-16.12-11.49c-4.2-6.06-4.56-13.56-4.08-20.56
			c0.68-9.79,4.05-15.11,12.23-21.67c7.28-5.84,15.14-9.72,24.55-11.25c2.96-0.48-10.32-6.07-11.39-5.97
			c-10.14,0.88-11.3,3.15-18.86,7.91c-9.13,5.74-14.34,15.73-16.44,25.81c-1.94,9.3-1.93,19.52,2.09,28.48
			c3.26,7.27,9.11,13.06,16.46,16.87c17.7,9.18,41.67,5.94,56.23-6.35c8.73-7.37,14.95-17.22,17.68-27.97
			c2.83-11.14-0.78-22.61-7.19-32.26c-7.29-10.96-17.67-20.78-30.49-25.27c-6.38-2.23-13.96-3.12-20.75-3.15
			c-6.65-0.02-13.23,2.86-19.23,5.33C-941.39,141.45-938.27,148.52-933.5,146.55L-933.5,146.55z"/>
	</g>
	<g>
		<path class="st1" d="M-864.05,147.19c1.53-0.06,4.25,1.06,4.58,1.23c0.12,0.06,3.2,2.3,4.6,3.34c1.56,1.16,4,1.81,5.27,0.89
			c1.35-0.99,1.08-6.02-1.7-8.9c-2.62-2.72-6.27-4.96-10.46-6.41c-5.04-1.75-11.72-1.87-17.45-0.8c-1.15,0.48,3.7,3.33,5.73,5.6
			c2.44,2.72,3.52,3.27,4.47,4.36C-868.05,147.58-864.98,147.22-864.05,147.19z"/>
	</g>
	<path class="st1" d="M-819.09,102.79c0,0-34.1-10.19-44.6,5.05c-10.5,15.23,28.07,12.75,28.07,12.75s16.79,0.37,21.89-8.56
		C-809.49,104.6-819.09,102.79-819.09,102.79z"/>
</g>
<g>
	<g>
		<path class="st0" d="M-475.55,80.61c-56.04-6.98-113.4-6.26-169.7-0.4c-4.57,0.48-9.25,1.02-13.27,2.64
			c-9.18,3.7-12.49,11.82-14.89,19.14c-12.77,38.91-23.06,78.24-30.85,117.81c-1.17,5.93-2.04,12.57,3.03,17.35
			c5.47,5.15,15.62,6.1,24.66,6.59c69.3,3.74,130.69,7.18,200.08,4.44c7.3-0.29,15.01-0.72,20.98-3.73
			c4.45-2.24,7.43-5.68,9.67-9.22c5.33-8.41,7.13-17.73,8.06-26.93c4.01-39.9-7.51-78.9-27.88-117.35
			c-1.81-3.41-3.64-8.52-8.62-9.97"/>
	</g>
	<path class="st1" d="M-530.75,150.35c-4.03-5.73-31.67-31.39-36.84-36.39c-4.3-4.15-9.54-7.2-13.66-3.73
		c-4.41,3.71,0.11,7.45,4.42,11.61c0,0,27.49,25.59,28.97,26.58c1.53,1.02,6.75,6.84,7.15,7.4c3.43,4.8-1.83,11.56-3.7,14.06
		c-4.39,5.86-10.08,12.52-15.04,18c-3.94,4.35-13.82,13.9-17.75,18.25c-0.67-6.74-0.94-20.46-1.13-27.27
		c-0.25-8.59,0.76-17.13,0.51-25.72c-0.16-5.45,1.11-10.14-3.65-10.29c-5.43-0.17-6.53,4.81-6.38,10.3
		c0.28,9.85-0.7,20.21-0.42,30.07c0.27,9.47,0.81,21.05,3.37,30.02c0.03,0.1,0.07,0.15,0.1,0.25c0.02,0.08,0.07,0.16,0.1,0.24
		c0.14,0.38,0.29,0.73,0.46,0.98c0.36,0.59,0.83,1.2,1.55,1.84c4.04,3.62,9.45,2.07,13.13-2c6.61-7.31,13.09-15.12,19.7-22.43
		c6.36-7.03,13.98-15.76,18.34-24C-527.33,160.2-525,158.54-530.75,150.35z"/>
</g>
<g>
	<g>
		<path class="st0" d="M97.71,247.25c10.21,3.24,81.53,4.71,125.44-1.16c3.57-0.48,7.22-1.02,10.35-2.66
			c7.16-3.72,9.74-11.87,11.61-19.22c9.96-39.07,17.99-78.55,24.06-118.28c0.91-5.96,1.59-12.62-2.36-17.42
			c-4.27-5.17-12.19-6.12-19.24-6.61c-54.04-3.75-101.93-7.21-156.05-4.45c-5.69,0.29-11.71,0.73-16.36,3.74
			c-3.47,2.25-5.8,5.7-7.55,9.26c-4.16,8.44-5.57,17.8-6.29,27.04c-3.13,40.06,18.35,111.63,21.75,117.82
			C86.47,241.5,87.84,244.12,97.71,247.25z"/>
	</g>
	<g>
		<g>
			<path class="st1" d="M165.21,173.51c2.86-1.87,7.66-0.17,10.18,1.57c2.52,1.72,3.32,4.34,4.84,7.02
				c3.24,5.7,4.93,12.68,2.92,18.99c-1.4,4.38-4.42,8.75-7.85,11.44c-6.84,5.38-15.48,7.2-23.36,3.31
				c-2.59-1.29-6.51-3.93-8.58-5.92c-3.46-3.32-7.71-6.62-8.76-11.5c-1.47-6.72-9.85-4.38-8.06,1.86
				c2.28,7.96,6.56,14.83,12.81,19.62c4.97,3.81,11.59,5.64,17.7,6.34c4.84,0.56,9.66,0.66,14.54-1.3
				c3.55-1.42,7.48-4.14,10.37-6.55c4.48-3.77,7.36-7.9,9.46-13.66c1.54-4.23,1.97-8.6,1.58-13.12c-0.42-4.97-1.86-10.07-4.21-14.33
				c-2.82-5.1-5.93-10.56-11.68-13.2c-4.81-2.21-12.06-2.39-16.82,0.7C155.01,168.25,159.88,176.97,165.21,173.51L165.21,173.51z"/>
		</g>
		<g>
			<path class="st1" d="M140.06,112.83c1.63,5.47,5.89,14.04,6.54,15.38c6.3,13.05,6.58,17.03,10.81,23.27
				c0.68,1.01,4.85,4.21,7.17,2.8c0.68-0.41,1.2-0.94,1.58-1.53c1.08-1.72,0.6-3.88,0.17-5.36c-1.44-4.92-5.05-9.73-5.89-11.37
				c-3.29-6.39-4.84-10.17-8.03-18.82c-0.67-1.83-1.91-7.38-3.94-9.44c-1.55-1.58-5.25-3.44-8.23-0.28
				C138.8,108.97,139.64,111.47,140.06,112.83z"/>
		</g>
		<g>
			<path class="st1" d="M179.56,95.52c-1.96,2.28-2.48,11.63-2.44,14.94s0.39,8.96,0.37,13.62c-0.02,3.97-0.84,13.61-1.55,24.88
				c-0.04,0.72,0.51,8.11,1.22,9.15c2.33,3.44,9.11,2.4,9.41-3.09c0.22-4.17-0.23-9.27,0.73-13.91c0.96-4.64-0.67-15.56,1.15-27.98
				c0.18-0.77,0.55-6.39,1.3-17.61c0.06-0.76,0.13-2.27-0.77-3.09C187.18,90.8,182.23,92.4,179.56,95.52z"/>
		</g>
		<g>
			<path class="st1" d="M136.65,167.59c1.13,1.26,4.09,3.58,5.22,4.84c1.66,1.85,2.74,3.38,3.89,4.93c0.91,1.22,1.8,2.06,3.09,3.5
				c0.65,0.73,1.72,0.74,2.67,0.92c1.58,0.3,2.82,0.44,3.9-0.78c1.83-2.07,1.71-4.6-0.13-6.67c-1.36-1.53-2.25-3.24-3.61-4.78
				c-0.78-0.88-1.58-1.76-2.36-2.64c-1.93-2.16-4.41-3.29-6.01-5.71c-1.78-2.7-4.63-2.24-6.36-0.28
				C135.1,163,134.79,165.52,136.65,167.59L136.65,167.59z"/>
		</g>
		<g>
			<path class="st1" d="M125.24,179.59c1.7,1.27,3.02,2.99,4.71,4.26c2.99,2.25,5.25,3.85,8.22,6.1c0.96,0.73,2.53,0.95,3.62,0.64
				c1.13-0.32,2.66-0.47,3.22-1.57c0.59-1.17,0.47-2.33,0.07-3.62c-0.41-1.32-1.59-2.02-2.67-2.84c-2.83-2.14-4.28-4.95-7.12-7.09
				c-1.85-1.39-3.84-2.24-5.68-3.62c-0.96-0.73-2.46-0.74-3.56-0.42c-1.13,0.32-2.38,0.62-2.94,1.7c-0.59,1.17-0.48,2.25-0.07,3.55
				C123.45,178,125.24,179.59,125.24,179.59z"/>
		</g>
	</g>
</g>
</svg>
