<?xml version="1.0" encoding="utf-8"?>
<!-- Generator: Adobe Illustrator 24.2.0, SVG Export Plug-In . SVG Version: 6.00 Build 0)  -->
<svg version="1.1" id="Ebene_1" xmlns="http://www.w3.org/2000/svg" xmlns:xlink="http://www.w3.org/1999/xlink" x="0px" y="0px"
	 viewBox="0 0 200 200" style="enable-background:new 0 0 200 200;" xml:space="preserve">
<style type="text/css">
	.st0{fill:#3B5DA7;}
	.st1{fill:#FFFFFF;}
</style>
<g>
	<g>
		<path class="st0" d="M126.06,20.44c-14.66-10.68-31.54-9.02-47.09-7.77c-10.4,0.83-20.75,3.36-29.68,8.46
			C30.45,31.88,20.03,53.3,19.09,74.49c-0.95,21.19,6.47,42.15,16.79,61.05c10.18,18.65,24.26,36.65,44.34,44.96
			c25.24,10.44,55.75,2.83,75.93-14.65c12.05-10.44,21.1-24.36,24.2-39.75c4.28-21.24,2.19-43.3-10.66-61.3s-27.68-33.7-46.33-46.13
			"/>
	</g>
	<g>
		<g>
			<path class="st1" d="M105.11,113.07c2.56-1.67,6.85-0.15,9.1,1.4c2.25,1.54,2.97,3.88,4.33,6.28c2.9,5.1,4.41,11.34,2.61,16.98
				c-1.25,3.92-3.95,7.82-7.02,10.23c-6.12,4.81-13.84,6.44-20.89,2.96c-2.32-1.15-5.82-3.51-7.67-5.29
				c-3.09-2.97-6.89-5.92-7.83-10.28c-1.31-6.01-8.81-3.92-7.21,1.66c2.04,7.12,5.87,13.26,11.45,17.54
				c4.44,3.41,10.36,5.04,15.83,5.67c4.33,0.5,8.64,0.59,13-1.16c3.17-1.27,6.69-3.7,9.27-5.86c4.01-3.37,6.58-7.06,8.46-12.21
				c1.38-3.78,1.76-7.69,1.41-11.73c-0.38-4.44-1.66-9-3.76-12.81c-2.52-4.56-5.3-9.44-10.44-11.8c-4.3-1.98-10.78-2.14-15.04,0.63
				C95.99,108.36,100.35,116.16,105.11,113.07L105.11,113.07z"/>
		</g>
		<g>
			<path class="st1" d="M82.62,58.81c1.46,4.89,5.27,12.55,5.85,13.75c5.63,11.67,5.88,15.23,9.67,20.81
				c0.61,0.9,4.34,3.76,6.41,2.5c0.61-0.37,1.07-0.84,1.41-1.37c0.97-1.54,0.54-3.47,0.15-4.79c-1.29-4.4-4.52-8.7-5.27-10.17
				c-2.94-5.71-4.33-9.09-7.18-16.83c-0.6-1.64-1.71-6.6-3.52-8.44c-1.39-1.41-4.69-3.08-7.36-0.25
				C81.5,55.36,82.25,57.59,82.62,58.81z"/>
		</g>
		<g>
			<path class="st1" d="M117.94,43.33c-1.75,2.04-2.22,10.4-2.18,13.36c0.04,2.96,0.35,8.01,0.33,12.18
				c-0.02,3.55-0.75,12.17-1.39,22.25c-0.04,0.64,0.46,7.25,1.09,8.18c2.08,3.08,8.15,2.15,8.41-2.76c0.2-3.73-0.21-8.29,0.65-12.44
				s-0.6-13.91,1.03-25.02c0.16-0.69,0.49-5.71,1.16-15.75c0.05-0.68,0.12-2.03-0.69-2.76C124.76,39.11,120.33,40.54,117.94,43.33z"
				/>
		</g>
		<g>
			<path class="st1" d="M79.57,107.77c1.01,1.13,3.66,3.2,4.67,4.33c1.48,1.65,2.45,3.02,3.48,4.41c0.81,1.09,1.61,1.84,2.76,3.13
				c0.58,0.65,1.54,0.66,2.39,0.82c1.41,0.27,2.52,0.39,3.49-0.7c1.64-1.85,1.53-4.11-0.12-5.96c-1.22-1.37-2.01-2.9-3.23-4.27
				c-0.7-0.79-1.41-1.57-2.11-2.36c-1.73-1.93-3.94-2.94-5.37-5.11c-1.59-2.41-4.14-2-5.69-0.25
				C78.19,103.67,77.91,105.92,79.57,107.77L79.57,107.77z"/>
		</g>
		<g>
			<path class="st1" d="M69.37,118.5c1.52,1.14,2.7,2.67,4.21,3.81c2.67,2.01,4.69,3.44,7.35,5.45c0.86,0.65,2.26,0.85,3.24,0.57
				c1.01-0.29,2.38-0.42,2.88-1.4c0.53-1.05,0.42-2.08,0.06-3.24c-0.37-1.18-1.42-1.81-2.39-2.54c-2.53-1.91-3.83-4.43-6.37-6.34
				c-1.65-1.24-3.43-2-5.08-3.24c-0.86-0.65-2.2-0.66-3.18-0.38c-1.01,0.29-2.13,0.55-2.63,1.52c-0.53,1.05-0.43,2.01-0.06,3.17
				C67.77,117.08,69.37,118.5,69.37,118.5z"/>
		</g>
	</g>
</g>
</svg>
