<?xml version="1.0" encoding="utf-8"?>
<!-- Generator: Adobe Illustrator 24.1.3, SVG Export Plug-In . SVG Version: 6.00 Build 0)  -->
<svg version="1.1" id="Ebene_1" xmlns="http://www.w3.org/2000/svg" xmlns:xlink="http://www.w3.org/1999/xlink" x="0px" y="0px"
	 viewBox="0 0 176.46 189.27" style="enable-background:new 0 0 176.46 189.27;" xml:space="preserve">
<style type="text/css">
	.st0{fill:#3D5EA9;}
	.st1{fill:#FFFFFF;}
</style>
<g>
	<path class="st0" d="M139.01,93.18c-4.44,11.74-15.7,22.65-29.82,29.14c-16.4,7.51-36.67,9.07-54.65-0.99
		c-24.07-13.45-26.39-40.75-15-62.85c11.38-22.1,43.16-27.15,65.52-22.03c8.47,1.95,17.11,5.99,23.92,12
		C140.18,58.33,146.48,73.46,139.01,93.18z"/>
</g>
<path class="st1" d="M91.3,68.75c0.06-0.07,0.37-0.31,1.55-0.31l3.87,0c1.26,0,2.28-1.02,2.28-2.28v-6.77
	c0-1.26-1.02-2.28-2.28-2.28l-5.75-0.01c-3.55,0-6.57,1.17-8.73,3.39c-2.15,2.21-3.29,5.28-3.29,8.9v3.65h-4.4
	c-1.26,0-2.28,1.02-2.28,2.28v7.29c0,1.26,1.02,2.28,2.28,2.28h4.4v17.01c0,1.26,1.02,2.28,2.28,2.28h7.54
	c1.26,0,2.28-1.02,2.28-2.28V84.9h5.38c1.26,0,2.28-1.03,2.28-2.28l0-7.29c0-0.83-0.45-1.59-1.18-2c-0.34-0.19-0.73-0.29-1.13-0.29
	h-5.36v-2.88C91.07,69.21,91.2,68.87,91.3,68.75z"/>
</svg>
