<svg id="instagram" xmlns="http://www.w3.org/2000/svg" width="25.5" height="25.5" viewBox="0 0 25.5 25.5">
  <defs>
    <style>
      .cls-1 {
        fill: #fffcf9;
      }
    </style>
  </defs>
  <path id="Path_163" data-name="Path 163" class="cls-1" d="M211.881,209.44a2.44,2.44,0,1,1-2.44-2.44A2.44,2.44,0,0,1,211.881,209.44Zm0,0" transform="translate(-196.69 -196.69)"/>
  <path id="Path_164" data-name="Path 164" class="cls-1" d="M147.194,137.172a2.424,2.424,0,0,0-1.389-1.389,4.051,4.051,0,0,0-1.359-.252c-.772-.035-1-.043-2.959-.043s-2.187.007-2.958.043a4.053,4.053,0,0,0-1.359.252,2.426,2.426,0,0,0-1.39,1.389,4.053,4.053,0,0,0-.252,1.36c-.035.772-.043,1-.043,2.959s.008,2.186.043,2.959a4.051,4.051,0,0,0,.252,1.359,2.424,2.424,0,0,0,1.389,1.389,4.045,4.045,0,0,0,1.36.252c.772.035,1,.043,2.958.043s2.187-.007,2.958-.043a4.045,4.045,0,0,0,1.36-.252,2.424,2.424,0,0,0,1.389-1.389,4.054,4.054,0,0,0,.252-1.359c.035-.772.043-1,.043-2.959s-.007-2.187-.043-2.959A4.045,4.045,0,0,0,147.194,137.172Zm-5.707,8.077a3.759,3.759,0,1,1,3.759-3.759A3.759,3.759,0,0,1,141.487,145.25Zm3.908-6.789a.879.879,0,1,1,.879-.879A.879.879,0,0,1,145.395,138.461Zm0,0" transform="translate(-128.737 -128.74)"/>
  <path id="Path_165" data-name="Path 165" class="cls-1" d="M12.75,0A12.75,12.75,0,1,0,25.5,12.75,12.751,12.751,0,0,0,12.75,0Zm7.277,15.768a5.371,5.371,0,0,1-.34,1.777,3.744,3.744,0,0,1-2.141,2.141,5.375,5.375,0,0,1-1.777.34c-.781.036-1.03.044-3.018.044s-2.238-.009-3.019-.044a5.375,5.375,0,0,1-1.777-.34,3.744,3.744,0,0,1-2.141-2.141,5.37,5.37,0,0,1-.34-1.777c-.036-.781-.044-1.03-.044-3.019s.008-2.238.044-3.018a5.372,5.372,0,0,1,.34-1.777A3.746,3.746,0,0,1,7.954,5.813a5.376,5.376,0,0,1,1.777-.34c.781-.036,1.03-.044,3.018-.044s2.238.009,3.018.044a5.378,5.378,0,0,1,1.777.34,3.745,3.745,0,0,1,2.141,2.141,5.371,5.371,0,0,1,.34,1.777c.036.781.044,1.03.044,3.018S20.063,14.988,20.027,15.768Zm0,0"/>
</svg>
