<?xml version="1.0" encoding="utf-8"?>
<!-- Generator: Adobe Illustrator 24.1.3, SVG Export Plug-In . SVG Version: 6.00 Build 0)  -->
<svg version="1.1" id="Ebene_1" xmlns="http://www.w3.org/2000/svg" xmlns:xlink="http://www.w3.org/1999/xlink" x="0px" y="0px"
	 viewBox="0 0 144.99 189.27" style="enable-background:new 0 0 144.99 189.27;" xml:space="preserve">
<style type="text/css">
	.st0{fill:#FFDF10;}
	.st1{fill:#FFFFFF;}
</style>
<g>
	<path class="st0" d="M108.55,105.15c-5.78,3.98-15.92,9.13-27.2,12.62c-17.59,5.48-37.92,6.94-48.73-6.25
		c-17.76-21.67-16.58-41.28,0-64.33c8.97-12.48,22.41-20.18,36-24.18c5.83-1.73,11.7-2.78,17.25-3.21
		c18.46-1.49,36.96,8.27,42.89,31.84C134.67,75.21,123.34,94.97,108.55,105.15z"/>
</g>
<g>
	<path class="st1" d="M75.77,56.86c-7.17,0-12.98,5.81-12.98,12.98c0,7.17,5.81,12.98,12.98,12.98c7.17,0,12.98-5.81,12.98-12.98
		C88.75,62.67,82.94,56.86,75.77,56.86L75.77,56.86z M75.77,78.27c-4.65,0-8.43-3.77-8.43-8.43c0-4.65,3.77-8.43,8.43-8.43
		c4.65,0,8.43,3.77,8.43,8.43C84.2,74.5,80.43,78.27,75.77,78.27z"/>
	<path class="st1" d="M86.19,44.72c-4.65-0.22-16.18-0.21-20.84,0c-4.09,0.19-7.71,1.18-10.62,4.09
		c-4.86,4.86-4.24,11.42-4.24,21.03c0,9.84-0.55,16.25,4.24,21.03c4.88,4.88,11.53,4.24,21.03,4.24c9.75,0,13.11,0.01,16.56-1.33
		c4.68-1.82,8.22-6.01,8.57-13.53c0.22-4.65,0.21-16.18,0-20.84C100.48,50.54,95.72,45.16,86.19,44.72L86.19,44.72z M93.56,87.65
		c-3.19,3.19-7.62,2.9-17.85,2.9c-10.54,0-14.76,0.16-17.85-2.93c-3.55-3.54-2.91-9.21-2.91-17.82c0-11.64-1.2-20.04,10.49-20.63
		c2.69-0.1,3.48-0.13,10.24-0.13l0.1,0.06c11.23,0,20.04-1.18,20.57,10.51c0.12,2.67,0.15,3.47,0.15,10.21
		C96.5,80.25,96.69,84.5,93.56,87.65L93.56,87.65z"/>
	<circle class="st1" cx="89.27" cy="56.35" r="3.03"/>
</g>
</svg>
