<?xml version="1.0" encoding="utf-8"?>
<!-- Generator: Adobe Illustrator 24.2.0, SVG Export Plug-In . SVG Version: 6.00 Build 0)  -->
<svg version="1.1" id="Ebene_1" xmlns="http://www.w3.org/2000/svg" xmlns:xlink="http://www.w3.org/1999/xlink" x="0px" y="0px"
	 viewBox="0 0 224.39 200" style="enable-background:new 0 0 224.39 200;" xml:space="preserve">
<style type="text/css">
	.st0{fill:#3B5DA7;}
	.st1{fill:#FFFFFF;}
</style>
<g>
	<path class="st0" d="M45.07,182.4c10.21,3.24,81.53,4.71,125.44-1.16c3.57-0.48,7.22-1.02,10.35-2.66
		c7.16-3.72,9.74-11.87,11.61-19.22c9.96-39.07,17.99-78.55,24.06-118.28c0.91-5.96,1.59-12.62-2.36-17.42
		c-4.27-5.17-12.19-6.12-19.24-6.61C140.89,13.3,93,9.84,38.88,12.6c-5.69,0.29-11.71,0.73-16.36,3.74c-3.47,2.25-5.8,5.7-7.55,9.26
		c-4.16,8.44-5.57,17.8-6.29,27.04C5.55,92.7,27.03,164.27,30.43,170.46C33.83,176.65,35.2,179.27,45.07,182.4z"/>
</g>
<g>
	<path class="st1" d="M74.89,82.48c4.7-1.94,9.03-3.77,14.22-4.05c4.89-0.26,10.38,1.05,15.06,2.44c9.87,2.94,18.25,8.5,25.14,15.9
		c6.77,7.27,9.53,16.94,9.45,26.68c-0.08,9.26-4.06,17.33-10.19,24.27c-11.17,12.64-24.64,15.22-41.5,9.26
		c-6.12-2.16-12.53-6.31-16.12-11.49c-4.2-6.06-4.56-13.56-4.08-20.56c0.68-9.79,4.05-15.11,12.23-21.67
		c7.28-5.84,15.14-9.72,24.55-11.25c2.96-0.48-10.32-6.07-11.39-5.97c-10.14,0.88-11.3,3.15-18.86,7.91
		c-9.13,5.74-14.34,15.73-16.44,25.81c-1.94,9.3-1.93,19.52,2.09,28.48c3.26,7.27,9.11,13.06,16.46,16.87
		c17.7,9.18,41.67,5.94,56.23-6.35c8.73-7.37,14.95-17.22,17.68-27.97c2.83-11.14-0.78-22.61-7.19-32.26
		c-7.29-10.96-17.67-20.78-30.49-25.27c-6.38-2.23-13.96-3.12-20.75-3.15c-6.65-0.02-13.23,2.86-19.23,5.33
		C67,77.38,70.12,84.45,74.89,82.48L74.89,82.48z"/>
</g>
<g>
	<path class="st1" d="M144.34,83.12c1.53-0.06,4.25,1.06,4.58,1.23c0.12,0.06,3.2,2.3,4.6,3.34c1.56,1.16,4,1.81,5.27,0.89
		c1.35-0.99,1.08-6.02-1.7-8.9c-2.62-2.72-6.27-4.96-10.46-6.41c-5.04-1.75-11.72-1.87-17.45-0.8c-1.15,0.48,3.7,3.33,5.73,5.6
		c2.44,2.72,3.52,3.27,4.47,4.36C140.34,83.51,143.41,83.15,144.34,83.12z"/>
</g>
<path class="st1" d="M189.3,38.72c0,0-34.1-10.19-44.6,5.05C134.2,59,172.77,56.52,172.77,56.52s16.79,0.37,21.89-8.56
	C198.9,40.53,189.3,38.72,189.3,38.72z"/>
</svg>
