<?xml version="1.0" encoding="utf-8"?>
<!-- Generator: Adobe Illustrator 24.2.0, SVG Export Plug-In . SVG Version: 6.00 Build 0)  -->
<svg version="1.1" id="Ebene_1" xmlns="http://www.w3.org/2000/svg" xmlns:xlink="http://www.w3.org/1999/xlink" x="0px" y="0px"
	 viewBox="0 0 400 400" style="enable-background:new 0 0 400 400;" xml:space="preserve">
<style type="text/css">
	.st0{fill:#3D5EA9;}
	.st1{fill:#FFFFFF;}
	.st2{fill:#FFDF10;}
	.st3{fill:#E34A2F;}
</style>
<g>
	<path class="st0" d="M-389.79,301.96c-11.54,26.88-35.26,49.94-75.52,68.19c-71.86,32.57-134.14,40.25-166.72-28.74
		c-32.57-68.99-24.7-131.26,32.59-184.92c20.86-19.55,55.57-42.17,114.96-33.54c29.79,4.33,53.07,17.33,69.97,36.46
		c-26.41,6.02-52.54,17.6-69.97,36.37c-32.2,34.68-34.49,64.18,0,96.77C-463.47,312.41-423.97,310.2-389.79,301.96z"/>
	<path class="st1" d="M-389.79,301.96c-34.18,8.24-73.68,10.44-94.69-9.41c-34.49-32.59-32.2-62.09,0-96.77
		c17.43-18.77,43.55-30.35,69.97-36.37c16.81,19.01,27.29,44.1,31.59,72.77C-379.13,257.46-380.7,280.88-389.79,301.96z"/>
	<path class="st2" d="M-336.93,282.96c-11.22,5.99-30.94,13.73-52.86,19c9.09-21.08,10.66-44.51,6.87-69.78
		c-4.3-28.67-14.79-53.75-31.59-72.77c11.34-2.6,22.74-4.17,33.53-4.83c35.89-2.24,71.84,12.45,83.34,47.9
		C-286.15,237.94-308.18,267.64-336.93,282.96z"/>
	<path class="st3" d="M-342.67,96.13c-29.7,5.76-52.76-3.82-59.35-28.74c-7.6-28.75,14.31-53.65,37.31-60.36
		c23-6.71,43.12,2.87,56.54,30.66C-294.77,65.47-312.97,90.38-342.67,96.13z"/>
</g>
<g>
	<path class="st0" d="M1181.12,18.8c-22.01,10.53-37.29,25.61-47.32,41.97c-15.24,24.88-29.04,48.74-35.84,74.29
		c-7.39-3.86-13.27-9.56-16.71-17.52c-21.09-48.66,5.68-83.51,47.03-95.68C1149.27,15.69,1166.49,14.53,1181.12,18.8z"/>
	<path class="st2" d="M1192.35,125.66c-23.38,13.91-68.32,23.1-94.39,9.41c6.8-25.55,20.6-49.42,35.84-74.29
		c10.03-16.36,25.31-31.44,47.32-41.97c14.22,4.13,25.98,13.42,36.38,28.2C1238.58,77,1222.36,107.83,1192.35,125.66z"/>
	<path class="st3" d="M1423.49,162.55c0,48.28-34.41,88.06-83.31,109.7c-9.38-16.43-22.14-31.93-39.97-45.21
		c-44.59-33.24-98.12-68.12-137.86-37.31c-23.16,17.96-25.83,56.88-9.18,91.29c-16.33-9.19-30.46-23.87-42.03-46.42
		c-19.56-38.17-21.07-69.97-13.18-99.53c26.07,13.7,71.01,4.51,94.39-9.41c30-17.83,46.22-48.66,25.15-78.66
		c-10.4-14.78-22.17-24.07-36.38-28.2c25.61-12.23,60.31-18.28,106.4-12.96C1373.24,15.74,1423.49,97.7,1423.49,162.55z"/>
	<path class="st1" d="M1340.18,272.25c-16.77,7.43-35.26,12.72-54.63,15.48c-51.82,7.37-97.18,13.08-132.36-6.71h-0.01
		c-16.65-34.41-13.99-73.33,9.18-91.29c39.74-30.81,93.26,4.06,137.86,37.31C1318.04,240.31,1330.8,255.81,1340.18,272.25z"/>
	<path class="st2" d="M1293.73,395.72c-36.5-2.43-94.07-53.52-125.7-91.64c-5.99-7.23-10.95-15.02-14.84-23.06
		c35.17,19.79,80.53,14.09,132.36,6.71c19.37-2.77,37.87-8.05,54.63-15.48c14.1,24.72,20.53,51.59,24.9,76.43
		C1372.39,390.03,1330.21,398.14,1293.73,395.72z"/>
</g>
<g>
	<path class="st2" d="M303.5,269.21c-19.81,68.29-114.9,104.44-170.36,80.57c-47.42-20.39-86.29-64.19-90.8-115.46
		c3.16,2.15,6.46,4.16,9.93,6c41.04,21.83,97.83,7.27,138.77-23.05c37.03-27.43,48.13-66.61,39.17-99.94
		c16.27,7.81,31.81,20.37,44.64,35.95c-10.4,18.04-14.49,37.49-10.66,51.75c6.41,23.95,24.24,31.85,43.47,30.81
		C308.01,246.93,306.72,258.14,303.5,269.21z"/>
	<path class="st3" d="M230.21,117.33c-5.01-2.41-10.1-4.37-15.19-5.81c-80.57-22.98-158.54,6.39-171.87,96.1
		c-1.35,9.06-1.58,17.99-0.81,26.7c-34.18-23.46-49.19-65.12-29.6-112.92c8.88-21.68,35.67-60.61,92.83-72.02
		s106.6,22.32,121.13,57.58C228.11,110.35,229.27,113.81,230.21,117.33z"/>
	<path class="st1" d="M191.05,217.28c-40.94,30.32-97.73,44.88-138.77,23.05c-3.47-1.84-6.77-3.85-9.93-6
		c-0.77-8.71-0.54-17.64,0.81-26.7c13.34-89.72,91.3-119.08,171.87-96.1c5.09,1.45,10.18,3.41,15.19,5.81
		C239.17,150.67,228.07,189.85,191.05,217.28z"/>
	<path class="st3" d="M307.66,235.84c-19.23,1.04-37.06-6.87-43.47-30.81c-3.82-14.26,0.26-33.71,10.66-51.75
		C293.73,176.15,306.75,205.52,307.66,235.84z"/>
	<path class="st0" d="M342.11,225.62c-10.5,5.65-22.73,9.6-34.45,10.22c-0.91-30.32-13.93-59.69-32.81-82.56
		c12.09-20.93,32.7-39.95,59.33-46.73c35.65-9.06,58.11,13.08,62.07,42.53C400.22,178.55,369.84,210.69,342.11,225.62z"/>
</g>
</svg>
