<svg id="Ebene_1" data-name="Ebene 1" xmlns="http://www.w3.org/2000/svg" viewBox="0 0 268.17 173.57"><defs><style>.cls-1{fill:#3b5da7;}.cls-2{fill:#fff;}</style></defs><path class="cls-1" d="M262.71,80.61c-56-7-113.4-6.26-169.7-.4-4.57.48-9.25,1-13.27,2.64C70.56,86.55,67.25,94.67,64.85,102A992.67,992.67,0,0,0,34,219.8c-1.17,5.93-2,12.57,3,17.35,5.47,5.15,15.62,6.1,24.66,6.59,69.3,3.74,130.69,7.18,200.08,4.44,7.3-.29,15-.72,21-3.73a24.56,24.56,0,0,0,9.67-9.22c5.33-8.41,7.13-17.73,8.06-26.93,4-39.9-7.51-78.9-27.88-117.35-1.81-3.41-3.64-8.52-8.62-10" transform="translate(-33.1 -75.59)"/><path class="cls-2" d="M207.51,150.35c-4-5.73-31.67-31.39-36.84-36.39-4.3-4.15-9.54-7.2-13.66-3.73-4.41,3.71.11,7.45,4.42,11.61,0,0,27.49,25.59,29,26.58s6.75,6.84,7.15,7.4c3.43,4.8-1.83,11.56-3.7,14.06-4.39,5.86-10.08,12.52-15,18-3.94,4.35-13.82,13.9-17.75,18.25-.67-6.74-.94-20.46-1.13-27.27-.25-8.59.76-17.13.51-25.72-.16-5.45,1.11-10.14-3.65-10.29-5.43-.17-6.53,4.81-6.38,10.3.28,9.85-.7,20.21-.42,30.07.27,9.47.81,21.05,3.37,30,0,.1.07.15.1.25a2.44,2.44,0,0,0,.1.24,4.73,4.73,0,0,0,.46,1,7.93,7.93,0,0,0,1.55,1.84c4,3.62,9.45,2.07,13.13-2,6.61-7.31,13.09-15.12,19.7-22.43,6.36-7,14-15.76,18.34-24C210.93,160.2,213.26,158.54,207.51,150.35Z" transform="translate(-33.1 -75.59)"/></svg>