<svg id="youtube" xmlns="http://www.w3.org/2000/svg" width="25.5" height="25.5" viewBox="0 0 25.5 25.5">
  <defs>
    <style>
      .cls-1 {
        fill: #fffbf8;
      }
    </style>
  </defs>
  <path id="Path_168" data-name="Path 168" class="cls-1" d="M224.113,212.816l4.147-2.389-4.147-2.389Zm0,0" transform="translate(-212.951 -197.678)"/>
  <path id="Path_169" data-name="Path 169" class="cls-1" d="M12.75,0A12.75,12.75,0,1,0,25.5,12.75,12.751,12.751,0,0,0,12.75,0Zm7.967,12.763a21.044,21.044,0,0,1-.328,3.833,2,2,0,0,1-1.4,1.4,48.46,48.46,0,0,1-6.234.328,46.726,46.726,0,0,1-6.234-.341,2,2,0,0,1-1.4-1.4,20.951,20.951,0,0,1-.328-3.832,21.03,21.03,0,0,1,.328-3.832A2.037,2.037,0,0,1,6.516,7.5a48.46,48.46,0,0,1,6.234-.328,46.627,46.627,0,0,1,6.234.341,2,2,0,0,1,1.4,1.4A19.97,19.97,0,0,1,20.717,12.763Zm0,0"/>
</svg>
