<?xml version="1.0" encoding="utf-8"?>
<!-- Generator: Adobe Illustrator 24.2.0, SVG Export Plug-In . SVG Version: 6.00 Build 0)  -->
<svg version="1.1" id="Ebene_1" xmlns="http://www.w3.org/2000/svg" xmlns:xlink="http://www.w3.org/1999/xlink" x="0px" y="0px"
	 viewBox="0 0 309.55 200" style="enable-background:new 0 0 309.55 200;" xml:space="preserve">
<style type="text/css">
	.st0{fill:#3B5DA7;}
	.st1{fill:#FFFFFF;}
</style>
<g>
	<g>
		<path class="st0" d="M254.16,17.02c-56.04-6.98-113.4-6.26-169.7-0.4c-4.57,0.48-9.25,1.02-13.27,2.64
			C62.01,22.96,58.7,31.08,56.3,38.4c-12.77,38.91-23.06,78.24-30.85,117.81c-1.17,5.93-2.04,12.57,3.03,17.35
			c5.47,5.15,15.62,6.1,24.66,6.59c69.3,3.74,130.69,7.18,200.08,4.44c7.3-0.29,15.01-0.72,20.98-3.73
			c4.45-2.24,7.43-5.68,9.67-9.22c5.33-8.41,7.13-17.73,8.06-26.93c4.01-39.9-7.51-78.9-27.88-117.35
			c-1.81-3.41-3.64-8.52-8.62-9.97"/>
	</g>
	<path class="st1" d="M198.96,86.76c-4.03-5.73-31.67-31.39-36.84-36.39c-4.3-4.15-9.54-7.2-13.66-3.73
		c-4.41,3.71,0.11,7.45,4.42,11.61c0,0,27.49,25.59,28.97,26.58c1.53,1.02,6.75,6.84,7.15,7.4c3.43,4.8-1.83,11.56-3.7,14.06
		c-4.39,5.86-10.08,12.52-15.04,18c-3.94,4.35-13.82,13.9-17.75,18.25c-0.67-6.74-0.94-20.46-1.13-27.27
		c-0.25-8.59,0.76-17.13,0.51-25.72c-0.16-5.45,1.11-10.14-3.65-10.29c-5.43-0.17-6.53,4.81-6.38,10.3
		c0.28,9.85-0.7,20.21-0.42,30.07c0.27,9.47,0.81,21.05,3.37,30.02c0.03,0.1,0.07,0.15,0.1,0.25c0.02,0.08,0.07,0.16,0.1,0.24
		c0.14,0.38,0.29,0.73,0.46,0.98c0.36,0.59,0.83,1.2,1.55,1.84c4.04,3.62,9.45,2.07,13.13-2c6.61-7.31,13.09-15.12,19.7-22.43
		c6.36-7.03,13.98-15.76,18.34-24C202.38,96.61,204.71,94.95,198.96,86.76z"/>
</g>
</svg>
