<?xml version="1.0" encoding="utf-8"?>
<!-- Generator: Adobe Illustrator 24.2.0, SVG Export Plug-In . SVG Version: 6.00 Build 0)  -->
<svg version="1.1" id="Ebene_1" xmlns="http://www.w3.org/2000/svg" xmlns:xlink="http://www.w3.org/1999/xlink" x="0px" y="0px"
	 viewBox="0 0 400 400" style="enable-background:new 0 0 400 400;" xml:space="preserve">
<style type="text/css">
	.st0{fill:#3D5EA9;}
	.st1{fill:#FFFFFF;}
	.st2{fill:#FFDF10;}
	.st3{fill:#E34A2F;}
</style>
<g>
	<path class="st0" d="M-886.46,209.45c-4.66,10.86-14.24,20.17-30.51,27.55c-29.03,13.16-54.18,16.26-67.35-11.61
		c-13.16-27.87-9.98-53.02,13.16-74.69c8.43-7.9,22.45-17.03,46.44-13.55c12.03,1.75,21.44,7,28.26,14.73
		c-10.67,2.43-21.22,7.11-28.26,14.69c-13.01,14.01-13.93,25.93,0,39.09C-916.22,213.66-900.26,212.77-886.46,209.45z"/>
	<path class="st1" d="M-886.46,209.45c-13.8,3.33-29.76,4.22-38.25-3.8c-13.93-13.16-13.01-25.08,0-39.09
		c7.04-7.58,17.59-12.26,28.26-14.69c6.79,7.68,11.03,17.81,12.76,29.39C-882.15,191.47-882.79,200.93-886.46,209.45z"/>
	<path class="st2" d="M-865.11,201.77c-4.53,2.42-12.5,5.55-21.35,7.67c3.67-8.51,4.31-17.98,2.77-28.19
		c-1.74-11.58-5.97-21.71-12.76-29.39c4.58-1.05,9.18-1.68,13.54-1.95c14.5-0.9,29.02,5.03,33.66,19.35
		C-844.59,183.58-853.49,195.58-865.11,201.77z"/>
	<path class="st3" d="M-867.43,126.3c-12,2.33-21.31-1.54-23.97-11.61c-3.07-11.61,5.78-21.67,15.07-24.38
		c9.29-2.71,17.42,1.16,22.84,12.38S-855.43,123.98-867.43,126.3z"/>
</g>
<g>
	<path class="st0" d="M132.43,18.8c-22.01,10.53-37.29,25.61-47.32,41.97c-15.24,24.88-29.04,48.74-35.84,74.29
		c-7.39-3.86-13.27-9.56-16.71-17.52C11.48,68.89,38.24,34.04,79.6,21.86C100.58,15.69,117.8,14.53,132.43,18.8z"/>
	<path class="st2" d="M143.67,125.66c-23.38,13.91-68.32,23.1-94.39,9.41c6.8-25.55,20.6-49.42,35.84-74.29
		c10.02-16.36,25.31-31.44,47.32-41.97c14.22,4.13,25.98,13.42,36.38,28.2C189.89,77,173.67,107.83,143.67,125.66z"/>
	<path class="st3" d="M374.8,162.55c0,48.28-34.41,88.06-83.31,109.7c-9.38-16.43-22.14-31.93-39.97-45.21
		c-44.59-33.24-98.12-68.12-137.86-37.31c-23.16,17.96-25.83,56.88-9.18,91.29c-16.33-9.19-30.46-23.87-42.03-46.42
		c-19.56-38.17-21.07-69.97-13.18-99.53c26.07,13.7,71.01,4.51,94.39-9.41c30-17.83,46.22-48.66,25.15-78.66
		c-10.4-14.78-22.17-24.07-36.38-28.2c25.61-12.23,60.31-18.28,106.4-12.96C324.55,15.74,374.8,97.7,374.8,162.55z"/>
	<path class="st1" d="M291.49,272.25c-16.77,7.43-35.26,12.72-54.63,15.48c-51.82,7.37-97.18,13.08-132.36-6.71h-0.01
		c-16.65-34.41-13.99-73.33,9.18-91.29c39.74-30.81,93.26,4.06,137.86,37.31C269.35,240.31,282.12,255.81,291.49,272.25z"/>
	<path class="st2" d="M245.04,395.72c-36.5-2.43-94.07-53.52-125.7-91.64c-5.99-7.23-10.95-15.02-14.84-23.06
		c35.17,19.79,80.53,14.09,132.36,6.71c19.37-2.77,37.87-8.05,54.63-15.48c14.1,24.72,20.53,51.59,24.9,76.43
		C323.7,390.03,281.53,398.14,245.04,395.72z"/>
</g>
<g>
	<path class="st2" d="M-892.74,378.31c-6.32,21.49-36.65,32.86-54.34,25.35c-15.13-6.41-27.53-20.2-28.96-36.33
		c1.01,0.68,2.06,1.31,3.17,1.89c13.09,6.87,31.21,2.29,44.27-7.25c11.81-8.63,15.35-20.96,12.49-31.45
		c5.19,2.46,10.15,6.41,14.24,11.31c-3.32,5.68-4.62,11.8-3.4,16.28c2.05,7.53,7.73,10.02,13.87,9.69
		C-891.3,371.3-891.71,374.82-892.74,378.31z"/>
	<path class="st3" d="M-916.12,330.52c-1.6-0.76-3.22-1.37-4.85-1.83c-25.7-7.23-50.57,2.01-54.82,30.24
		c-0.43,2.85-0.5,5.66-0.26,8.4c-10.9-7.38-15.69-20.49-9.44-35.53c2.83-6.82,11.38-19.07,29.61-22.66s34,7.02,38.64,18.12
		C-916.79,328.33-916.42,329.41-916.12,330.52z"/>
	<path class="st1" d="M-928.61,361.97c-13.06,9.54-31.17,14.12-44.27,7.25c-1.11-0.58-2.16-1.21-3.17-1.89
		c-0.25-2.74-0.17-5.55,0.26-8.4c4.25-28.23,29.12-37.47,54.82-30.24c1.62,0.46,3.25,1.07,4.85,1.83
		C-913.26,341.01-916.8,353.34-928.61,361.97z"/>
	<path class="st3" d="M-891.41,367.81c-6.13,0.33-11.82-2.16-13.87-9.69c-1.22-4.49,0.08-10.61,3.4-16.28
		C-895.86,349.03-891.7,358.27-891.41,367.81z"/>
	<path class="st0" d="M-880.42,364.59c-3.35,1.78-7.25,3.02-10.99,3.21c-0.29-9.54-4.44-18.78-10.47-25.98
		c3.86-6.59,10.43-12.57,18.93-14.7c11.37-2.85,18.54,4.11,19.8,13.38C-861.89,349.78-871.58,359.9-880.42,364.59z"/>
</g>
</svg>
